<mxfile host="app.diagrams.net" modified="2021-12-03T13:11:35.216Z" agent="5.0 (Windows NT 10.0; Win64; x64) AppleWebKit/537.36 (KHTML, like Gecko) Chrome/96.0.4664.45 Safari/537.36" etag="4bEj273A3dL7rCGUAh4Z" version="15.8.9" type="github">
  <diagram id="g1jB2hz9hVVV7-8Gp_nh" name="Page-1">
    <mxGraphModel dx="1673" dy="829" grid="1" gridSize="10" guides="1" tooltips="1" connect="1" arrows="1" fold="1" page="1" pageScale="1" pageWidth="850" pageHeight="1100" math="0" shadow="0">
      <root>
        <mxCell id="0" />
        <mxCell id="1" parent="0" />
        <mxCell id="zv8Ro54LaXEdnFd926l7-1" value="" style="rounded=0;whiteSpace=wrap;html=1;" vertex="1" parent="1">
          <mxGeometry x="240" y="200" width="370" height="240" as="geometry" />
        </mxCell>
        <mxCell id="zv8Ro54LaXEdnFd926l7-2" value="" style="rounded=0;whiteSpace=wrap;html=1;" vertex="1" parent="1">
          <mxGeometry x="250" y="210" width="350" height="220" as="geometry" />
        </mxCell>
        <mxCell id="zv8Ro54LaXEdnFd926l7-3" value="&lt;font style=&quot;font-size: 20px&quot;&gt;IMPORT&lt;/font&gt;" style="rounded=0;whiteSpace=wrap;html=1;" vertex="1" parent="1">
          <mxGeometry x="250" y="210" width="350" height="40" as="geometry" />
        </mxCell>
        <mxCell id="zv8Ro54LaXEdnFd926l7-4" value="IMPORT" style="rounded=0;whiteSpace=wrap;html=1;fontSize=20;" vertex="1" parent="1">
          <mxGeometry x="350" y="370" width="150" height="40" as="geometry" />
        </mxCell>
        <mxCell id="zv8Ro54LaXEdnFd926l7-5" value="PILIH FAIL (txt):" style="rounded=0;whiteSpace=wrap;html=1;fontSize=20;movable=1;resizable=1;rotatable=1;deletable=1;editable=1;connectable=1;align=left;spacingLeft=10;" vertex="1" parent="1">
          <mxGeometry x="260" y="270" width="330" height="40" as="geometry" />
        </mxCell>
        <mxCell id="zv8Ro54LaXEdnFd926l7-6" value="" style="triangle;whiteSpace=wrap;html=1;fontSize=20;rotation=90;" vertex="1" parent="1">
          <mxGeometry x="550" y="270" width="20" height="40" as="geometry" />
        </mxCell>
      </root>
    </mxGraphModel>
  </diagram>
</mxfile>
